<?xml version="1.0" encoding="UTF-8" standalone="no"?>
<svg
   xmlns:dc="http://purl.org/dc/elements/1.1/"
   xmlns:cc="http://creativecommons.org/ns#"
   xmlns:rdf="http://www.w3.org/1999/02/22-rdf-syntax-ns#"
   xmlns:svg="http://www.w3.org/2000/svg"
   xmlns="http://www.w3.org/2000/svg"
   xmlns:sodipodi="http://sodipodi.sourceforge.net/DTD/sodipodi-0.dtd"
   xmlns:inkscape="http://www.inkscape.org/namespaces/inkscape"
   sodipodi:docname="X-blanco-24x24-p.svg"
   inkscape:version="1.0 (4035a4f, 2020-05-01)"
   id="svg198"
   version="1.1"
   viewBox="0 0 6.35 6.35"
   height="24"
   width="24">
  <defs
     id="defs192" />
  <sodipodi:namedview
     inkscape:window-maximized="0"
     inkscape:window-y="118"
     inkscape:window-x="1593"
     inkscape:window-height="674"
     inkscape:window-width="1251"
     units="px"
     showgrid="false"
     inkscape:document-rotation="0"
     inkscape:current-layer="layer1"
     inkscape:document-units="mm"
     inkscape:cy="12.210292"
     inkscape:cx="34.117816"
     inkscape:zoom="15.839192"
     inkscape:pageshadow="2"
     inkscape:pageopacity="0.0"
     borderopacity="1.0"
     bordercolor="#666666"
     pagecolor="#ffffff"
     id="base" />
  <metadata
     id="metadata195">
    <rdf:RDF>
      <cc:Work
         rdf:about="">
        <dc:format>image/svg+xml</dc:format>
        <dc:type
           rdf:resource="http://purl.org/dc/dcmitype/StillImage" />
        <dc:title></dc:title>
      </cc:Work>
    </rdf:RDF>
  </metadata>
  <g
     id="layer1"
     inkscape:groupmode="layer"
     inkscape:label="Capa 1">
    <g
       transform="matrix(0.24100072,0,0,0.24789432,1.0752065,0.97291334)"
       id="surface1">
      <path
         style="fill:#000000;fill-opacity:1;fill-rule:nonzero;stroke:none"
         d="M 10.117188,7.207031 16.449219,0 h -1.5 l -5.5,6.253906 L 5.0625,0 H 0 L 6.636719,9.460938 0,17.015625 H 1.5 L 7.300781,10.40625 11.9375,17.015625 H 17 M 2.039062,1.105469 H 4.34375 l 10.605469,14.855469 h -2.304688"
         id="path200" />
      <path
         style="fill:#ffffff;fill-opacity:1;fill-rule:nonzero;stroke:none"
         d="M 0.101562,16.929688 C 0.132812,16.894531 1.621094,15.199219 3.40625,13.164062 5.503906,10.777344 6.648438,9.453125 6.636719,9.429688 6.621094,9.410156 5.136719,7.289062 3.332031,4.71875 1.527344,2.144531 0.0546875,0.0351562 0.0546875,0.0273438 0.0546875,0.0195312 1.175781,0.015625 2.550781,0.015625 h 2.5 l 2.1875,3.121094 C 8.445312,4.851562 9.441406,6.253906 9.460938,6.246094 9.480469,6.238281 14.214844,0.882812 14.890625,0.0976562 L 14.964844,0.015625 15.679688,0.0234375 16.398438,0.03125 13.25,3.609375 c -1.730469,1.972656 -3.144531,3.589844 -3.144531,3.597656 0,0.00391 1.539062,2.207031 3.421875,4.886719 1.878906,2.683594 3.417968,4.882812 3.417968,4.890625 0,0.0078 -1.121093,0.01563 -2.496093,0.01563 h -2.5 L 9.640625,13.707031 c -1.273437,-1.8125 -2.324219,-3.292969 -2.339844,-3.292969 -0.015625,0 -1.332031,1.484376 -2.921875,3.292969 L 1.488281,17 H 0.046875 Z M 14.960938,15.953125 C 14.957031,15.941406 12.566406,12.59375 9.65625,8.511719 L 4.359375,1.09375 H 3.195312 c -0.636718,0 -1.160156,0.00781 -1.160156,0.019531 0,0.00781 2.382813,3.355469 5.296875,7.441407 l 5.300781,7.425781 h 1.167969 c 0.644531,0 1.167969,-0.01172 1.160157,-0.02734 z m 0,0"
         id="path202" />
    </g>
  </g>
</svg>
